InferenceManager initialized. Model is NOT loaded yet (Lazy Load).
2026-03-04 16:32:34 | INFO     | EchoPersona | Loaded 24 base lexicon entries
--- Testing NORMAL Mode ---
2026-03-04 16:32:34 | INFO     | EchoPipeline | Starting Unified Pipeline for Session: b4b16d7d-24f7-4c72-b2ef-216794c9dcee in normal mode (speed=0.9)
2026-03-04 16:32:34 | INFO     | EchoPipeline | Generating raw voice chunks...
2026-03-04 16:32:34 | WARNING  | EchoCore | Voice voice1 not found. Falling back to default.
2026-03-04 16:32:34 | INFO     | EchoCore | Generating segment 0 for voice1 -> seg_0000_voice1.wav
/opt/homebrew/Caskroom/miniforge/base/envs/apva310/lib/python3.10/site-packages/transformers/utils/generic.py:441: FutureWarning: `torch.utils._pytree._register_pytree_node` is deprecated. Please use `torch.utils._pytree.register_pytree_node` instead.
  _torch_pytree._register_pytree_node(
/opt/homebrew/Caskroom/miniforge/base/envs/apva310/lib/python3.10/site-packages/transformers/utils/generic.py:309: FutureWarning: `torch.utils._pytree._register_pytree_node` is deprecated. Please use `torch.utils._pytree.register_pytree_node` instead.
  _torch_pytree._register_pytree_node(
/opt/homebrew/Caskroom/miniforge/base/envs/apva310/lib/python3.10/site-packages/TTS/tts/layers/xtts/xtts_manager.py:5: UserWarning: Environment variable TORCH_FORCE_NO_WEIGHTS_ONLY_LOAD detected, since the`weights_only` argument was not explicitly passed to `torch.load`, forcing weights_only=False.
  self.speakers = torch.load(speaker_file_path)
/opt/homebrew/Caskroom/miniforge/base/envs/apva310/lib/python3.10/site-packages/TTS/utils/io.py:54: UserWarning: Environment variable TORCH_FORCE_NO_WEIGHTS_ONLY_LOAD detected, since the`weights_only` argument was not explicitly passed to `torch.load`, forcing weights_only=False.
  return torch.load(f, map_location=map_location, **kwargs)
TTS Model is loading into RAM. This may take a moment...
 > tts_models/multilingual/multi-dataset/xtts_v2 is already downloaded.
 > Using model: xtts
TTS Model successfully loaded into RAM!
Generating audio to storage/tmp/b4b16d7d-24f7-4c72-b2ef-216794c9dcee/seg_0000_voice1.wav...
 > Text splitted to sentences.
['مرحبا بك في عالم المعرفة']
 > Processing time: 4.257511138916016
 > Real-time factor: 1.0944567316393645
Generated directly from RAM to: storage/tmp/b4b16d7d-24f7-4c72-b2ef-216794c9dcee/seg_0000_voice1.wav
2026-03-04 16:32:59 | WARNING  | EchoCore | Voice voice1 not found. Falling back to default.
WARNING:EchoCore:Voice voice1 not found. Falling back to default.
2026-03-04 16:32:59 | INFO     | EchoCore | Generating segment 1 for voice1 -> seg_0001_voice1.wav
INFO:EchoCore:Generating segment 1 for voice1 -> seg_0001_voice1.wav
Generating audio to storage/tmp/b4b16d7d-24f7-4c72-b2ef-216794c9dcee/seg_0001_voice1.wav...
 > Text splitted to sentences.
['هذا اختبار لسرعة ونبرة الصوت الجديدة']
 > Processing time: 3.541344165802002
 > Real-time factor: 0.9743291931515041
Generated directly from RAM to: storage/tmp/b4b16d7d-24f7-4c72-b2ef-216794c9dcee/seg_0001_voice1.wav
2026-03-04 16:33:03 | WARNING  | EchoCore | Voice voice1 not found. Falling back to default.
WARNING:EchoCore:Voice voice1 not found. Falling back to default.
2026-03-04 16:33:03 | INFO     | EchoCore | Generating segment 2 for voice1 -> seg_0002_voice1.wav
INFO:EchoCore:Generating segment 2 for voice1 -> seg_0002_voice1.wav
Generating audio to storage/tmp/b4b16d7d-24f7-4c72-b2ef-216794c9dcee/seg_0002_voice1.wav...
 > Text splitted to sentences.
['خلّني أوضح… نتمنى أن ينال إعجابكم']
 > Processing time: 4.113566160202026
 > Real-time factor: 0.9153896923184914
Generated directly from RAM to: storage/tmp/b4b16d7d-24f7-4c72-b2ef-216794c9dcee/seg_0002_voice1.wav
2026-03-04 16:33:07 | INFO     | EchoPipeline | Stitching chunks into Normal WAV with Smart Pacing...
INFO:EchoPipeline:Stitching chunks into Normal WAV with Smart Pacing...
2026-03-04 16:33:07 | INFO     | EchoRenderer | Successfully concatenated audio to storage/tmp/b4b16d7d-24f7-4c72-b2ef-216794c9dcee/normal_merged.wav
INFO:EchoRenderer:Successfully concatenated audio to storage/tmp/b4b16d7d-24f7-4c72-b2ef-216794c9dcee/normal_merged.wav
2026-03-04 16:33:07 | INFO     | EchoPipeline | Converting Normal to MP3...
INFO:EchoPipeline:Converting Normal to MP3...
2026-03-04 16:33:07 | INFO     | EchoRenderer | Converted normal_merged.wav to MP3.
INFO:EchoRenderer:Converted normal_merged.wav to MP3.
2026-03-04 16:33:07 | INFO     | EchoPipeline | Mixing Cinematic Output with BGM & Ducking using echo_agent/assets/music/calm_music.ogg...
INFO:EchoPipeline:Mixing Cinematic Output with BGM & Ducking using echo_agent/assets/music/calm_music.ogg...
2026-03-04 16:33:07 | ERROR    | EchoRenderer | FFmpeg Error: ffmpeg version 8.0.1 Copyright (c) 2000-2025 the FFmpeg developers
  built with Apple clang version 17.0.0 (clang-1700.6.3.2)
  configuration: --prefix=/opt/homebrew/Cellar/ffmpeg/8.0.1_4 --enable-shared --enable-pthreads --enable-version3 --cc=clang --host-cflags= --host-ldflags= --enable-ffplay --enable-gpl --enable-libsvtav1 --enable-libopus --enable-libx264 --enable-libmp3lame --enable-libdav1d --enable-libvpx --enable-libx265 --enable-openssl --enable-videotoolbox --enable-audiotoolbox --enable-neon
  libavutil      60.  8.100 / 60.  8.100
  libavcodec     62. 11.100 / 62. 11.100
  libavformat    62.  3.100 / 62.  3.100
  libavdevice    62.  1.100 / 62.  1.100
  libavfilter    11.  4.100 / 11.  4.100
  libswscale      9.  1.100 /  9.  1.100
  libswresample   6.  1.100 /  6.  1.100
[aist#0:0/pcm_s16le @ 0x93cc10600] Guessed Channel Layout: mono
Input #0, wav, from 'storage/tmp/b4b16d7d-24f7-4c72-b2ef-216794c9dcee/normal_merged.wav':
  Metadata:
    encoder         : Lavf62.3.100
  Duration: 00:00:17.78, bitrate: 384 kb/s
  Stream #0:0: Audio: pcm_s16le ([1][0][0][0] / 0x0001), 24000 Hz, mono, s16, 384 kb/s
[ogg @ 0x93cc28280] Format ogg detected only with low score of 1, misdetection possible!
[in#1 @ 0x93cc24280] Error opening input: End of file
Error opening input file echo_agent/assets/music/calm_music.ogg.
Error opening input files: End of file

Stdout: 
ERROR:EchoRenderer:FFmpeg Error: ffmpeg version 8.0.1 Copyright (c) 2000-2025 the FFmpeg developers
  built with Apple clang version 17.0.0 (clang-1700.6.3.2)
  configuration: --prefix=/opt/homebrew/Cellar/ffmpeg/8.0.1_4 --enable-shared --enable-pthreads --enable-version3 --cc=clang --host-cflags= --host-ldflags= --enable-ffplay --enable-gpl --enable-libsvtav1 --enable-libopus --enable-libx264 --enable-libmp3lame --enable-libdav1d --enable-libvpx --enable-libx265 --enable-openssl --enable-videotoolbox --enable-audiotoolbox --enable-neon
  libavutil      60.  8.100 / 60.  8.100
  libavcodec     62. 11.100 / 62. 11.100
  libavformat    62.  3.100 / 62.  3.100
  libavdevice    62.  1.100 / 62.  1.100
  libavfilter    11.  4.100 / 11.  4.100
  libswscale      9.  1.100 /  9.  1.100
  libswresample   6.  1.100 /  6.  1.100
[aist#0:0/pcm_s16le @ 0x93cc10600] Guessed Channel Layout: mono
Input #0, wav, from 'storage/tmp/b4b16d7d-24f7-4c72-b2ef-216794c9dcee/normal_merged.wav':
  Metadata:
    encoder         : Lavf62.3.100
  Duration: 00:00:17.78, bitrate: 384 kb/s
  Stream #0:0: Audio: pcm_s16le ([1][0][0][0] / 0x0001), 24000 Hz, mono, s16, 384 kb/s
[ogg @ 0x93cc28280] Format ogg detected only with low score of 1, misdetection possible!
[in#1 @ 0x93cc24280] Error opening input: End of file
Error opening input file echo_agent/assets/music/calm_music.ogg.
Error opening input files: End of file

Stdout: 
2026-03-04 16:33:07 | ERROR    | EchoRenderer | Failed to mix BGM. Falling back to speech only.
ERROR:EchoRenderer:Failed to mix BGM. Falling back to speech only.
Normal mode output: {'session_id': 'b4b16d7d-24f7-4c72-b2ef-216794c9dcee', 'normal_url': '/api/v1/session/b4b16d7d-24f7-4c72-b2ef-216794c9dcee/normal.mp3', 'cinematic_url': '/api/v1/session/b4b16d7d-24f7-4c72-b2ef-216794c9dcee/cinematic.mp3', 'segments': [{'speaker': 'voice1', 'text': 'مرحبا بك في عالم المعرفة'}, {'speaker': 'voice1', 'text': 'هذا اختبار لسرعة ونبرة الصوت الجديدة'}, {'speaker': 'voice1', 'text': 'نتمنى أن ينال إعجابكم'}]}

--- Testing CINEMATIC Mode ---
2026-03-04 16:33:07 | INFO     | EchoPipeline | Starting Unified Pipeline for Session: 256e2c41-133f-4ef0-8191-6d892a7ef871 in cinematic mode (speed=0.85)
INFO:EchoPipeline:Starting Unified Pipeline for Session: 256e2c41-133f-4ef0-8191-6d892a7ef871 in cinematic mode (speed=0.85)
2026-03-04 16:33:07 | INFO     | EchoPipeline | Generating raw voice chunks...
INFO:EchoPipeline:Generating raw voice chunks...
2026-03-04 16:33:07 | WARNING  | EchoCore | Voice voice1 not found. Falling back to default.
WARNING:EchoCore:Voice voice1 not found. Falling back to default.
2026-03-04 16:33:07 | INFO     | EchoCore | Generating segment 0 for voice1 -> seg_0000_voice1.wav
INFO:EchoCore:Generating segment 0 for voice1 -> seg_0000_voice1.wav
Generating audio to storage/tmp/256e2c41-133f-4ef0-8191-6d892a7ef871/seg_0000_voice1.wav...
 > Text splitted to sentences.
['مرحبا بك في عالم المعرفة']
 > Processing time: 2.971308946609497
 > Real-time factor: 1.0358803799762746
Generated directly from RAM to: storage/tmp/256e2c41-133f-4ef0-8191-6d892a7ef871/seg_0000_voice1.wav
2026-03-04 16:33:10 | WARNING  | EchoCore | Voice voice1 not found. Falling back to default.
WARNING:EchoCore:Voice voice1 not found. Falling back to default.
2026-03-04 16:33:10 | INFO     | EchoCore | Generating segment 1 for voice1 -> seg_0001_voice1.wav
INFO:EchoCore:Generating segment 1 for voice1 -> seg_0001_voice1.wav
Generating audio to storage/tmp/256e2c41-133f-4ef0-8191-6d892a7ef871/seg_0001_voice1.wav...
 > Text splitted to sentences.
['هذا اختبار لسرعة ونبرة الصوت الجديدة']
 > Processing time: 4.201601028442383
 > Real-time factor: 0.9349800447799385
Generated directly from RAM to: storage/tmp/256e2c41-133f-4ef0-8191-6d892a7ef871/seg_0001_voice1.wav
2026-03-04 16:33:14 | WARNING  | EchoCore | Voice voice1 not found. Falling back to default.
WARNING:EchoCore:Voice voice1 not found. Falling back to default.
2026-03-04 16:33:14 | INFO     | EchoCore | Generating segment 2 for voice1 -> seg_0002_voice1.wav
INFO:EchoCore:Generating segment 2 for voice1 -> seg_0002_voice1.wav
Generating audio to storage/tmp/256e2c41-133f-4ef0-8191-6d892a7ef871/seg_0002_voice1.wav...
 > Text splitted to sentences.
['نتمنى أن ينال إعجابكم']
 > Processing time: 3.970907211303711
 > Real-time factor: 0.9046795339027818
Generated directly from RAM to: storage/tmp/256e2c41-133f-4ef0-8191-6d892a7ef871/seg_0002_voice1.wav
2026-03-04 16:33:18 | INFO     | EchoPipeline | Stitching chunks into Normal WAV with Smart Pacing...
INFO:EchoPipeline:Stitching chunks into Normal WAV with Smart Pacing...
2026-03-04 16:33:19 | INFO     | EchoRenderer | Successfully concatenated audio to storage/tmp/256e2c41-133f-4ef0-8191-6d892a7ef871/normal_merged.wav
INFO:EchoRenderer:Successfully concatenated audio to storage/tmp/256e2c41-133f-4ef0-8191-6d892a7ef871/normal_merged.wav
2026-03-04 16:33:19 | INFO     | EchoPipeline | Converting Normal to MP3...
INFO:EchoPipeline:Converting Normal to MP3...
2026-03-04 16:33:19 | INFO     | EchoRenderer | Converted normal_merged.wav to MP3.
INFO:EchoRenderer:Converted normal_merged.wav to MP3.
2026-03-04 16:33:19 | INFO     | EchoPipeline | Mixing Cinematic Output with BGM & Ducking using echo_agent/assets/music/calm_music.ogg...
INFO:EchoPipeline:Mixing Cinematic Output with BGM & Ducking using echo_agent/assets/music/calm_music.ogg...
2026-03-04 16:33:19 | ERROR    | EchoRenderer | FFmpeg Error: ffmpeg version 8.0.1 Copyright (c) 2000-2025 the FFmpeg developers
  built with Apple clang version 17.0.0 (clang-1700.6.3.2)
  configuration: --prefix=/opt/homebrew/Cellar/ffmpeg/8.0.1_4 --enable-shared --enable-pthreads --enable-version3 --cc=clang --host-cflags= --host-ldflags= --enable-ffplay --enable-gpl --enable-libsvtav1 --enable-libopus --enable-libx264 --enable-libmp3lame --enable-libdav1d --enable-libvpx --enable-libx265 --enable-openssl --enable-videotoolbox --enable-audiotoolbox --enable-neon
  libavutil      60.  8.100 / 60.  8.100
  libavcodec     62. 11.100 / 62. 11.100
  libavformat    62.  3.100 / 62.  3.100
  libavdevice    62.  1.100 / 62.  1.100
  libavfilter    11.  4.100 / 11.  4.100
  libswscale      9.  1.100 /  9.  1.100
  libswresample   6.  1.100 /  6.  1.100
[aist#0:0/pcm_s16le @ 0x759014600] Guessed Channel Layout: mono
Input #0, wav, from 'storage/tmp/256e2c41-133f-4ef0-8191-6d892a7ef871/normal_merged.wav':
  Metadata:
    encoder         : Lavf62.3.100
  Duration: 00:00:19.25, bitrate: 384 kb/s
  Stream #0:0: Audio: pcm_s16le ([1][0][0][0] / 0x0001), 24000 Hz, mono, s16, 384 kb/s
[ogg @ 0x758c38280] Format ogg detected only with low score of 1, misdetection possible!
[in#1 @ 0x759020280] Error opening input: End of file
Error opening input file echo_agent/assets/music/calm_music.ogg.
Error opening input files: End of file

Stdout: 
ERROR:EchoRenderer:FFmpeg Error: ffmpeg version 8.0.1 Copyright (c) 2000-2025 the FFmpeg developers
  built with Apple clang version 17.0.0 (clang-1700.6.3.2)
  configuration: --prefix=/opt/homebrew/Cellar/ffmpeg/8.0.1_4 --enable-shared --enable-pthreads --enable-version3 --cc=clang --host-cflags= --host-ldflags= --enable-ffplay --enable-gpl --enable-libsvtav1 --enable-libopus --enable-libx264 --enable-libmp3lame --enable-libdav1d --enable-libvpx --enable-libx265 --enable-openssl --enable-videotoolbox --enable-audiotoolbox --enable-neon
  libavutil      60.  8.100 / 60.  8.100
  libavcodec     62. 11.100 / 62. 11.100
  libavformat    62.  3.100 / 62.  3.100
  libavdevice    62.  1.100 / 62.  1.100
  libavfilter    11.  4.100 / 11.  4.100
  libswscale      9.  1.100 /  9.  1.100
  libswresample   6.  1.100 /  6.  1.100
[aist#0:0/pcm_s16le @ 0x759014600] Guessed Channel Layout: mono
Input #0, wav, from 'storage/tmp/256e2c41-133f-4ef0-8191-6d892a7ef871/normal_merged.wav':
  Metadata:
    encoder         : Lavf62.3.100
  Duration: 00:00:19.25, bitrate: 384 kb/s
  Stream #0:0: Audio: pcm_s16le ([1][0][0][0] / 0x0001), 24000 Hz, mono, s16, 384 kb/s
[ogg @ 0x758c38280] Format ogg detected only with low score of 1, misdetection possible!
[in#1 @ 0x759020280] Error opening input: End of file
Error opening input file echo_agent/assets/music/calm_music.ogg.
Error opening input files: End of file

Stdout: 
2026-03-04 16:33:19 | ERROR    | EchoRenderer | Failed to mix BGM. Falling back to speech only.
ERROR:EchoRenderer:Failed to mix BGM. Falling back to speech only.
Cinematic mode output: {'session_id': '256e2c41-133f-4ef0-8191-6d892a7ef871', 'normal_url': '/api/v1/session/256e2c41-133f-4ef0-8191-6d892a7ef871/normal.mp3', 'cinematic_url': '/api/v1/session/256e2c41-133f-4ef0-8191-6d892a7ef871/cinematic.mp3', 'segments': [{'speaker': 'voice1', 'text': 'مرحبا بك في عالم المعرفة'}, {'speaker': 'voice1', 'text': 'هذا اختبار لسرعة ونبرة الصوت الجديدة'}, {'speaker': 'voice1', 'text': 'نتمنى أن ينال إعجابكم'}]}
